<?xml version="1.0" encoding="utf-8"?>
<!-- Generator: Adobe Illustrator 18.1.1, SVG Export Plug-In . SVG Version: 6.00 Build 0)  -->
<svg version="1.1" id="Layer_1" xmlns="http://www.w3.org/2000/svg" xmlns:xlink="http://www.w3.org/1999/xlink" x="0px" y="0px"
	 viewBox="0 0 172.8 193.4" enable-background="new 0 0 172.8 193.4" xml:space="preserve">
<g>
	<rect x="81.2" y="101.7" fill="#D85B27" width="10.5" height="70.1"/>
	<rect x="12.9" y="68.9" transform="matrix(-0.866 -0.5 0.5 -0.866 52.3673 162.2906)" fill="#D85B27" width="70.1" height="10.5"/>
	<rect x="89.8" y="68.9" transform="matrix(-0.866 0.5 -0.5 -0.866 270.0821 75.8891)" fill="#D85B27" width="70.1" height="10.5"/>
	<rect x="0" y="61.7" fill="#D85B27" width="10.5" height="70.1"/>
	<rect x="162.3" y="61.7" fill="#D85B27" width="10.5" height="70.1"/>
	<rect x="5.9" y="16.8" transform="matrix(0.866 -0.5 0.5 0.866 -5.5397 23.4328)" fill="#D85B27" width="70.1" height="10.5"/>
	<rect x="126.6" y="-13" transform="matrix(0.5 -0.866 0.866 0.5 46.8199 125.2044)" fill="#D85B27" width="10.5" height="70.1"/>
	<rect x="5.9" y="166.1" transform="matrix(-0.866 -0.5 0.5 -0.866 -9.2713 340.2948)" fill="#D85B27" width="70.1" height="10.5"/>
	
		<rect x="126.6" y="136.4" transform="matrix(-0.5 -0.866 0.866 -0.5 49.3444 371.2678)" fill="#D85B27" width="10.5" height="70.1"/>
</g>
</svg>
